# xmcd
#
# Track frame offsets:
# 150
# 18688
# 37109
# 51231
# 67499
# 82834
# 100696
# 118835
# 134252
# 154501
# 169119
# 183753
#
# Disc length: 2661 seconds
#
#
# Revision: 6
# Processed by: cddbd v1.5.2PL0 Copyright (c) Steve Scherf et al.
# Submitted via: FreeRIP 2.96 
#
DISCID=a00a630c
DTITLE=Leandro and Leonardo - Leandro E Leonardo 1991
DYEAR=1991
DGENRE=Country
TTITLE0=Sonho Por Sonho
TTITLE1=Gostoso Sentimento
TTITLE2=Não Aprendi Dizer Adeus
TTITLE3=Bate Coração
TTITLE4=Sabor De Mim
TTITLE5=Me Dê Um Sinal
TTITLE6=Mensagem
TTITLE7=Estou Na Mão Desta Mulher
TTITLE8=A Rotina (Fim De Semana)
TTITLE9=Não Olhe Assim
TTITLE10=Amores São Coisas Da Vida
TTITLE11=Paz Na Cama
EXTD=YEAR: 1991
EXTT0=
EXTT1=
EXTT2=
EXTT3=
EXTT4=
EXTT5=
EXTT6=
EXTT7=
EXTT8=
EXTT9=
EXTT10=
EXTT11=
PLAYORDER=
